<svg version="1.1" id="Layer_1" xmlns="http://www.w3.org/2000/svg" xmlns:xlink="http://www.w3.org/1999/xlink" x="0px" y="0px"
	 width="100%" viewBox="0 0 1200 1200" enable-background="new 0 0 1200 1200" xml:space="preserve">
<path fill="#000000" opacity="1.000000" stroke="none" 
	d="
M1196.134766,1201.000000 
	C797.447876,1201.000000 399.285187,1201.000000 1.061243,1201.000000 
	C1.061243,801.044800 1.061243,401.089630 1.061243,1.067215 
	C400.951202,1.067215 800.902405,1.067215 1200.926758,1.067215 
	C1200.926758,400.947205 1200.926758,800.894470 1200.926758,1201.000000 
	C1199.553955,1201.000000 1198.106445,1201.000000 1196.134766,1201.000000 
M779.500000,835.997620 
	C859.492004,835.997620 939.484009,835.998718 1019.476013,835.995483 
	C1025.982178,835.995239 1025.996094,835.981445 1025.996460,829.348572 
	C1025.999756,755.522461 1025.999268,681.696350 1025.996582,607.870239 
	C1025.996338,601.014526 1025.985596,601.004150 1019.191895,601.004089 
	C740.385864,601.002319 461.579834,601.002319 182.773819,601.004150 
	C176.012253,601.004211 176.003906,601.015076 176.003723,607.904602 
	C176.001663,681.564026 176.002365,755.223511 176.003021,828.882935 
	C176.003036,830.049438 175.598221,831.460754 176.110641,832.326843 
	C176.942520,833.733093 178.182251,835.241882 179.614227,835.851746 
	C181.026749,836.453247 182.891724,835.996948 184.558167,835.997009 
	C382.538788,835.997681 580.519409,835.997620 779.500000,835.997620 
z"/>
<path fill="#181818" opacity="1.000000" stroke="none" 
	d="
M779.000000,835.997620 
	C580.519409,835.997620 382.538788,835.997681 184.558167,835.997009 
	C182.891724,835.996948 181.026749,836.453247 179.614227,835.851746 
	C178.182251,835.241882 176.942520,833.733093 176.110641,832.326843 
	C175.598221,831.460754 176.003036,830.049438 176.003021,828.882935 
	C176.002365,755.223511 176.001663,681.564026 176.003723,607.904602 
	C176.003906,601.015076 176.012253,601.004211 182.773819,601.004150 
	C461.579834,601.002319 740.385864,601.002319 1019.191895,601.004089 
	C1025.985596,601.004150 1025.996338,601.014526 1025.996582,607.870239 
	C1025.999268,681.696350 1025.999756,755.522461 1025.996460,829.348572 
	C1025.996094,835.981445 1025.982178,835.995239 1019.476013,835.995483 
	C939.484009,835.998718 859.492004,835.997620 779.000000,835.997620 
M648.906982,687.390686 
	C639.856079,726.152161 630.805176,764.913635 621.617004,804.262817 
	C627.473267,804.262817 632.613403,804.139343 637.743835,804.310425 
	C640.689209,804.408630 641.680725,803.227600 642.231384,800.382874 
	C643.778259,792.392090 645.728577,784.479065 647.541626,776.540405 
	C655.685547,740.880554 663.830933,705.220947 672.009094,669.568909 
	C672.329651,668.171570 672.989380,666.852112 673.491150,665.496338 
	C674.914246,668.166260 675.316589,670.559143 675.699097,672.955139 
	C679.108826,694.312378 682.551514,715.664490 685.911987,737.029480 
	C689.270813,758.384399 692.532654,779.754517 695.900269,801.107971 
	C696.060791,802.126099 696.785400,803.854858 697.328430,803.887085 
	C701.803528,804.152771 706.370972,804.568054 710.748230,803.890442 
	C712.372803,803.639038 713.833740,800.744934 714.915161,798.803162 
	C738.620422,756.238586 762.259705,713.637329 785.920288,671.047913 
	C787.131104,668.868408 788.418640,666.731445 789.670471,664.574707 
	C790.058960,664.742371 790.447449,664.910095 790.835938,665.077759 
	C783.341370,711.260864 775.846802,757.444031 768.303650,803.926758 
	C775.054016,803.926758 781.450317,803.926758 787.982056,803.926758 
	C797.229126,747.886230 806.425110,692.155212 815.709229,635.889954 
	C807.108398,635.889954 798.960327,636.158752 790.842773,635.778076 
	C786.696411,635.583740 784.686035,637.205688 782.809021,640.646057 
	C761.470825,679.758240 739.999634,718.797852 718.539734,757.843567 
	C715.889893,762.664795 713.098694,767.408325 710.373047,772.187866 
	C709.948242,772.101746 709.523376,772.015686 709.098572,771.929565 
	C702.357544,726.773071 695.616516,681.616516 688.835632,636.192810 
	C679.540466,636.192810 670.432312,636.192810 660.981445,636.192810 
	C657.020752,652.956482 653.049744,669.764160 648.906982,687.390686 
M231.508118,804.263794 
	C241.171158,804.263794 250.838150,804.434937 260.496094,804.213196 
	C269.292999,804.011230 278.333466,804.554321 286.823120,802.718323 
	C310.430084,797.612976 328.081116,784.810181 333.636749,759.986206 
	C337.101440,744.505127 334.348053,730.110962 321.225067,719.327820 
	C319.135986,717.611084 316.799927,716.194885 314.360504,714.487549 
	C315.557343,713.585388 316.336823,712.968323 317.145660,712.392578 
	C326.709534,705.585266 334.346832,697.256470 338.347839,685.964722 
	C346.241028,663.688538 336.725861,645.140747 314.211243,638.461304 
	C302.273590,634.919678 290.103149,636.108765 277.991486,635.917114 
	C269.385651,635.780945 260.775879,635.890747 251.959885,635.890747 
	C240.805496,692.120667 229.750595,747.849060 218.559555,804.263794 
	C222.927109,804.263794 226.720169,804.263794 231.508118,804.263794 
M414.826599,652.983948 
	C438.446655,652.983948 462.066742,652.983948 485.951294,652.983948 
	C487.153595,647.202087 488.263092,641.866516 489.444061,636.187134 
	C457.601227,636.187134 426.206970,636.187134 394.495514,636.187134 
	C383.397797,692.139893 372.344696,747.867737 361.219727,803.957825 
	C392.961060,803.957825 424.372986,803.957825 456.073395,803.957825 
	C457.094147,798.452393 458.081909,793.124817 459.214752,787.014648 
	C434.069366,787.014648 409.574738,787.014648 384.736664,787.014648 
	C388.372467,768.344788 392.136261,750.452576 395.196594,732.440857 
	C396.130829,726.942261 398.442749,726.008667 403.399475,726.106628 
	C419.054840,726.416199 434.720215,726.220947 450.381714,726.221069 
	C452.167725,726.221069 453.953735,726.221130 455.710419,726.221130 
	C456.582306,722.175049 457.315735,718.764526 458.052368,715.354614 
	C459.314453,709.512085 459.237885,709.379944 453.379456,709.373535 
	C437.051514,709.355774 420.723572,709.373962 404.395630,709.356506 
	C403.159332,709.355164 401.923248,709.184326 400.242767,709.059143 
	C403.734985,690.949524 407.081726,673.329590 410.643951,655.753357 
	C410.866364,654.655945 412.777893,653.900940 414.826599,652.983948 
M501.971497,758.328430 
	C498.985779,773.431702 496.000061,788.534912 492.954163,803.942505 
	C524.822937,803.942505 556.227539,803.942505 587.854431,803.942505 
	C588.844788,798.357361 589.785522,793.051758 590.832825,787.145569 
	C565.799500,787.145569 541.400513,787.145569 516.844177,787.145569 
	C516.940186,785.645996 516.895569,784.644653 517.081726,783.688171 
	C520.479004,766.230957 524.040833,748.804138 527.223816,731.308228 
	C527.987549,727.110168 529.746826,726.069824 533.799927,726.125732 
	C550.288330,726.353271 566.782227,726.283203 583.272156,726.120789 
	C584.836487,726.105408 587.411133,724.994629 587.762207,723.852844 
	C589.108276,719.475525 589.738464,714.877991 590.833496,709.367676 
	C570.825562,709.367676 551.538757,709.367676 531.816528,709.367676 
	C535.313538,691.640747 538.793823,674.893555 541.806030,658.062561 
	C542.507568,654.142761 543.709717,652.858032 547.728271,652.893555 
	C569.215515,653.083984 590.705322,652.983398 612.194275,652.983398 
	C613.984375,652.983398 615.774414,652.983398 617.657654,652.983398 
	C618.895752,647.115479 620.017456,641.799072 621.210205,636.146240 
	C589.324829,636.146240 557.897888,636.146240 526.231750,636.146240 
	C518.192932,676.681030 510.178741,717.091553 501.971497,758.328430 
M892.662964,705.710815 
	C884.050293,683.580322 875.473267,661.435791 866.740417,639.352844 
	C866.189209,637.958923 864.468323,636.124695 863.213989,636.062561 
	C856.587097,635.734253 849.935303,635.908569 842.795837,635.908569 
	C843.439453,637.762939 843.862671,639.159790 844.402039,640.510254 
	C856.049255,669.672424 867.729614,698.821472 879.316467,728.007568 
	C880.012207,729.760071 880.541504,731.908203 880.200928,733.691284 
	C877.020508,750.344238 873.605164,766.952087 870.318726,783.585083 
	C868.987305,790.323242 867.806763,797.091125 866.551758,803.876831 
	C873.714478,803.876831 880.134521,803.876831 886.676880,803.876831 
	C890.575134,783.621948 894.226440,763.679688 898.350098,743.835571 
	C899.537781,738.119751 900.792114,731.675598 904.220642,727.288208 
	C926.356323,698.962524 949.106201,671.116882 971.642822,643.104309 
	C973.328430,641.009155 974.922974,638.840576 977.185181,635.890747 
	C970.053528,635.890747 964.240723,636.100159 958.452515,635.813293 
	C954.910828,635.637756 952.687622,636.869873 950.517822,639.639465 
	C935.633179,658.638672 920.589478,677.513489 905.569275,696.406250 
	C902.101685,700.767883 898.526245,705.043823 894.701416,709.725098 
	C893.854797,708.130615 893.398499,707.271362 892.662964,705.710815 
z"/>
<path fill="#DFDFDF" opacity="1.000000" stroke="none" 
	d="
M648.992798,686.981262 
	C653.049744,669.764160 657.020752,652.956482 660.981445,636.192810 
	C670.432312,636.192810 679.540466,636.192810 688.835632,636.192810 
	C695.616516,681.616516 702.357544,726.773071 709.098572,771.929565 
	C709.523376,772.015686 709.948242,772.101746 710.373047,772.187866 
	C713.098694,767.408325 715.889893,762.664795 718.539734,757.843567 
	C739.999634,718.797852 761.470825,679.758240 782.809021,640.646057 
	C784.686035,637.205688 786.696411,635.583740 790.842773,635.778076 
	C798.960327,636.158752 807.108398,635.889954 815.709229,635.889954 
	C806.425110,692.155212 797.229126,747.886230 787.982056,803.926758 
	C781.450317,803.926758 775.054016,803.926758 768.303650,803.926758 
	C775.846802,757.444031 783.341370,711.260864 790.835938,665.077759 
	C790.447449,664.910095 790.058960,664.742371 789.670471,664.574707 
	C788.418640,666.731445 787.131104,668.868408 785.920288,671.047913 
	C762.259705,713.637329 738.620422,756.238586 714.915161,798.803162 
	C713.833740,800.744934 712.372803,803.639038 710.748230,803.890442 
	C706.370972,804.568054 701.803528,804.152771 697.328430,803.887085 
	C696.785400,803.854858 696.060791,802.126099 695.900269,801.107971 
	C692.532654,779.754517 689.270813,758.384399 685.911987,737.029480 
	C682.551514,715.664490 679.108826,694.312378 675.699097,672.955139 
	C675.316589,670.559143 674.914246,668.166260 673.491150,665.496338 
	C672.989380,666.852112 672.329651,668.171570 672.009094,669.568909 
	C663.830933,705.220947 655.685547,740.880554 647.541626,776.540405 
	C645.728577,784.479065 643.778259,792.392090 642.231384,800.382874 
	C641.680725,803.227600 640.689209,804.408630 637.743835,804.310425 
	C632.613403,804.139343 627.473267,804.262817 621.617004,804.262817 
	C630.805176,764.913635 639.856079,726.152161 648.992798,686.981262 
z"/>
<path fill="#DFDFDF" opacity="1.000000" stroke="none" 
	d="
M231.010681,804.263794 
	C226.720169,804.263794 222.927109,804.263794 218.559555,804.263794 
	C229.750595,747.849060 240.805496,692.120667 251.959885,635.890747 
	C260.775879,635.890747 269.385651,635.780945 277.991486,635.917114 
	C290.103149,636.108765 302.273590,634.919678 314.211243,638.461304 
	C336.725861,645.140747 346.241028,663.688538 338.347839,685.964722 
	C334.346832,697.256470 326.709534,705.585266 317.145660,712.392578 
	C316.336823,712.968323 315.557343,713.585388 314.360504,714.487549 
	C316.799927,716.194885 319.135986,717.611084 321.225067,719.327820 
	C334.348053,730.110962 337.101440,744.505127 333.636749,759.986206 
	C328.081116,784.810181 310.430084,797.612976 286.823120,802.718323 
	C278.333466,804.554321 269.292999,804.011230 260.496094,804.213196 
	C250.838150,804.434937 241.171158,804.263794 231.010681,804.263794 
M249.192734,751.842224 
	C246.989761,763.413757 244.786789,774.985291 242.532013,786.828918 
	C254.740601,786.828918 266.662506,787.919128 278.300781,786.567383 
	C294.779175,784.653503 307.784180,776.565369 312.012512,759.232727 
	C315.806122,743.682007 310.957245,730.018677 293.324524,727.499573 
	C281.216675,725.769775 268.765930,726.373291 256.464691,726.202271 
	C255.565598,726.189819 254.104889,728.240112 253.809143,729.537476 
	C252.185257,736.660828 250.843201,743.848389 249.192734,751.842224 
M316.430145,685.735901 
	C323.225739,666.614014 317.676270,656.396057 297.876343,653.565735 
	C289.061218,652.305664 279.948059,653.019775 270.974152,653.139648 
	C269.989838,653.152832 268.466125,655.026611 268.162292,656.273743 
	C266.985229,661.104736 266.223267,666.035706 265.265350,670.921387 
	C262.808319,683.452759 260.329193,695.979858 257.759979,709.010254 
	C269.567108,709.010254 281.006165,709.035522 292.444611,708.962219 
	C293.355316,708.956360 294.330750,708.382874 295.159302,707.880615 
	C303.979095,702.533203 311.397308,695.803467 316.430145,685.735901 
z"/>
<path fill="#DFDFDF" opacity="1.000000" stroke="none" 
	d="
M414.365051,652.985352 
	C412.777893,653.900940 410.866364,654.655945 410.643951,655.753357 
	C407.081726,673.329590 403.734985,690.949524 400.242767,709.059143 
	C401.923248,709.184326 403.159332,709.355164 404.395630,709.356506 
	C420.723572,709.373962 437.051514,709.355774 453.379456,709.373535 
	C459.237885,709.379944 459.314453,709.512085 458.052368,715.354614 
	C457.315735,718.764526 456.582306,722.175049 455.710419,726.221130 
	C453.953735,726.221130 452.167725,726.221069 450.381714,726.221069 
	C434.720215,726.220947 419.054840,726.416199 403.399475,726.106628 
	C398.442749,726.008667 396.130829,726.942261 395.196594,732.440857 
	C392.136261,750.452576 388.372467,768.344788 384.736664,787.014648 
	C409.574738,787.014648 434.069366,787.014648 459.214752,787.014648 
	C458.081909,793.124817 457.094147,798.452393 456.073395,803.957825 
	C424.372986,803.957825 392.961060,803.957825 361.219727,803.957825 
	C372.344696,747.867737 383.397797,692.139893 394.495514,636.187134 
	C426.206970,636.187134 457.601227,636.187134 489.444061,636.187134 
	C488.263092,641.866516 487.153595,647.202087 485.951294,652.983948 
	C462.066742,652.983948 438.446655,652.983948 414.365051,652.985352 
z"/>
<path fill="#DFDFDF" opacity="1.000000" stroke="none" 
	d="
M502.068054,757.915222 
	C510.178741,717.091553 518.192932,676.681030 526.231750,636.146240 
	C557.897888,636.146240 589.324829,636.146240 621.210205,636.146240 
	C620.017456,641.799072 618.895752,647.115479 617.657654,652.983398 
	C615.774414,652.983398 613.984375,652.983398 612.194275,652.983398 
	C590.705322,652.983398 569.215515,653.083984 547.728271,652.893555 
	C543.709717,652.858032 542.507568,654.142761 541.806030,658.062561 
	C538.793823,674.893555 535.313538,691.640747 531.816528,709.367676 
	C551.538757,709.367676 570.825562,709.367676 590.833496,709.367676 
	C589.738464,714.877991 589.108276,719.475525 587.762207,723.852844 
	C587.411133,724.994629 584.836487,726.105408 583.272156,726.120789 
	C566.782227,726.283203 550.288330,726.353271 533.799927,726.125732 
	C529.746826,726.069824 527.987549,727.110168 527.223816,731.308228 
	C524.040833,748.804138 520.479004,766.230957 517.081726,783.688171 
	C516.895569,784.644653 516.940186,785.645996 516.844177,787.145569 
	C541.400513,787.145569 565.799500,787.145569 590.832825,787.145569 
	C589.785522,793.051758 588.844788,798.357361 587.854431,803.942505 
	C556.227539,803.942505 524.822937,803.942505 492.954163,803.942505 
	C496.000061,788.534912 498.985779,773.431702 502.068054,757.915222 
z"/>
<path fill="#DFDFDF" opacity="1.000000" stroke="none" 
	d="
M892.802612,706.061401 
	C893.398499,707.271362 893.854797,708.130615 894.701416,709.725098 
	C898.526245,705.043823 902.101685,700.767883 905.569275,696.406250 
	C920.589478,677.513489 935.633179,658.638672 950.517822,639.639465 
	C952.687622,636.869873 954.910828,635.637756 958.452515,635.813293 
	C964.240723,636.100159 970.053528,635.890747 977.185181,635.890747 
	C974.922974,638.840576 973.328430,641.009155 971.642822,643.104309 
	C949.106201,671.116882 926.356323,698.962524 904.220642,727.288208 
	C900.792114,731.675598 899.537781,738.119751 898.350098,743.835571 
	C894.226440,763.679688 890.575134,783.621948 886.676880,803.876831 
	C880.134521,803.876831 873.714478,803.876831 866.551758,803.876831 
	C867.806763,797.091125 868.987305,790.323242 870.318726,783.585083 
	C873.605164,766.952087 877.020508,750.344238 880.200928,733.691284 
	C880.541504,731.908203 880.012207,729.760071 879.316467,728.007568 
	C867.729614,698.821472 856.049255,669.672424 844.402039,640.510254 
	C843.862671,639.159790 843.439453,637.762939 842.795837,635.908569 
	C849.935303,635.908569 856.587097,635.734253 863.213989,636.062561 
	C864.468323,636.124695 866.189209,637.958923 866.740417,639.352844 
	C875.473267,661.435791 884.050293,683.580322 892.802612,706.061401 
z"/>
<path fill="#191919" opacity="1.000000" stroke="none" 
	d="
M249.298553,751.428101 
	C250.843201,743.848389 252.185257,736.660828 253.809143,729.537476 
	C254.104889,728.240112 255.565598,726.189819 256.464691,726.202271 
	C268.765930,726.373291 281.216675,725.769775 293.324524,727.499573 
	C310.957245,730.018677 315.806122,743.682007 312.012512,759.232727 
	C307.784180,776.565369 294.779175,784.653503 278.300781,786.567383 
	C266.662506,787.919128 254.740601,786.828918 242.532013,786.828918 
	C244.786789,774.985291 246.989761,763.413757 249.298553,751.428101 
z"/>
<path fill="#181818" opacity="1.000000" stroke="none" 
	d="
M316.265015,686.083130 
	C311.397308,695.803467 303.979095,702.533203 295.159302,707.880615 
	C294.330750,708.382874 293.355316,708.956360 292.444611,708.962219 
	C281.006165,709.035522 269.567108,709.010254 257.759979,709.010254 
	C260.329193,695.979858 262.808319,683.452759 265.265350,670.921387 
	C266.223267,666.035706 266.985229,661.104736 268.162292,656.273743 
	C268.466125,655.026611 269.989838,653.152832 270.974152,653.139648 
	C279.948059,653.019775 289.061218,652.305664 297.876343,653.565735 
	C317.676270,656.396057 323.225739,666.614014 316.265015,686.083130 
z"/>
</svg>